<svg xmlns="http://www.w3.org/2000/svg" viewBox="0 0 256 256" role="img" aria-label="API Key Case">
  <rect width="256" height="256" rx="52" fill="#d5f6a3"/>
  <g fill="none" stroke="#0d1714" stroke-linejoin="round">
    <path d="M91 86V69a12 12 0 0 1 12-12h50a12 12 0 0 1 12 12v17" stroke-width="14"/>
    <rect x="48" y="86" width="160" height="112" rx="22" stroke-width="14"/>
    <circle cx="98" cy="143" r="17.5" stroke-width="17"/>
    <path d="M124 144h49" stroke-width="19" stroke-linecap="round"/>
  </g>
  <path fill="#0d1714" d="M144 150h13v12a3 3 0 0 1-3 3h-7a3 3 0 0 1-3-3zM161.5 150h13v12a3 3 0 0 1-3 3h-7a3 3 0 0 1-3-3z"/>
</svg>
